<svg xmlns="http://www.w3.org/2000/svg" width="60" height="60" viewBox="0 0 20.538 19.536"><link xmlns="" type="text/css" rel="stylesheet" id="dark-mode-custom-link"/><link xmlns="" type="text/css" rel="stylesheet" id="dark-mode-general-link"/><style xmlns="" lang="en" type="text/css" id="dark-mode-custom-style"/><style xmlns="" lang="en" type="text/css" id="dark-mode-native-style"/><style xmlns="" lang="en" type="text/css" id="dark-mode-native-sheet"/><g id="Heart_b" data-name="Heart b" transform="translate(-1.731 -2.214)"><path id="Path_182" data-name="Path 182" d="M11.761,20.854a34.845,34.845,0,0,1-6.022-4.689A11.991,11.991,0,0,1,2.873,11.6C1.8,8.25,3.054,4.421,6.571,3.288A5.978,5.978,0,0,1,12,4.2a5.987,5.987,0,0,1,5.425-.914C20.938,4.421,22.2,8.25,21.128,11.6a11.99,11.99,0,0,1-2.866,4.57,34.844,34.844,0,0,1-6.022,4.689L12.005,21Z" fill="none" stroke="#000" stroke-linecap="round" stroke-linejoin="round" stroke-width="1.5" fill-rule="evenodd"/><path id="Path_183" data-name="Path 183" d="M15.739,7.053a2.782,2.782,0,0,1,1.917,2.422" fill="none" stroke="#000" stroke-linecap="round" stroke-linejoin="round" stroke-width="1.5"/></g></svg>